<svg xmlns="http://www.w3.org/2000/svg" width="261.362" height="192.887" viewBox="0 0 261.362 192.887">
  <g id="Group_2016" data-name="Group 2016" transform="translate(-34.329 -39.305)">
    <path id="Path_2442" data-name="Path 2442" d="M83.164,50.235c-.941-4.758-4.758-7.161-9.421-7.161-8.009,0-11.4,6.6-11.4,13.615,0,7.679,3.392,14.087,11.447,14.087,5.889,0,9.281-4.146,9.7-9.706H87.97c-.848,8.386-6.078,13.476-14.558,13.476-10.459,0-15.547-7.728-15.547-17.526,0-9.752,5.559-17.714,15.923-17.714,7.02,0,12.814,3.769,13.851,10.93H83.164" transform="translate(-1.136)" fill="#161615"/>
    <path id="Path_2443" data-name="Path 2443" d="M93.293,49.869h3.769V55h.094c1.931-3.911,4.617-5.842,8.951-5.7v4.24c-6.454,0-8.809,3.676-8.809,9.847V74.226h-4V49.869" transform="translate(-2.846 -0.482)" fill="#161615"/>
    <path id="Path_2444" data-name="Path 2444" d="M119.051,49.3c7.726,0,11.824,5.607,11.824,12.767,0,7.114-4.1,12.72-11.824,12.72s-11.824-5.606-11.824-12.72c0-7.16,4.1-12.767,11.824-12.767m0,21.954c4.192,0,7.584-3.3,7.584-9.187,0-5.935-3.392-9.233-7.584-9.233s-7.585,3.3-7.585,9.233C111.466,67.96,114.858,71.258,119.051,71.258Z" transform="translate(-3.518 -0.483)" fill="#161615"/>
    <path id="Path_2445" data-name="Path 2445" d="M158.959,74.255h-4.24l-4.946-19.364h-.094l-4.9,19.364h-4.334L132.624,49.9h4.428l5.512,19.926h.094l4.9-19.926h4.382l5.088,19.926h.094L162.587,49.9h4.146l-7.774,24.357" transform="translate(-4.744 -0.511)" fill="#161615"/>
    <path id="Path_2446" data-name="Path 2446" d="M171.259,49.869h3.769v3.863h.094a8.478,8.478,0,0,1,7.915-4.428c6.407,0,8.386,3.675,8.386,8.9V74.226h-4V57.736a4.589,4.589,0,0,0-4.947-4.9c-4.852,0-7.207,3.249-7.207,7.631V74.226h-4V49.869" transform="translate(-6.609 -0.483)" fill="#161615"/>
    <path id="Path_2447" data-name="Path 2447" d="M83.164,102.235c-.941-4.758-4.758-7.161-9.421-7.161-8.009,0-11.4,6.6-11.4,13.615,0,7.679,3.392,14.087,11.447,14.087,5.889,0,9.281-4.146,9.7-9.706H87.97c-.848,8.386-6.078,13.476-14.558,13.476-10.459,0-15.547-7.728-15.547-17.526,0-9.751,5.559-17.715,15.923-17.715,7.02,0,12.814,3.77,13.851,10.931H83.164" transform="translate(-1.136 -2.51)" fill="#161615"/>
    <path id="Path_2448" data-name="Path 2448" d="M104,101.3c7.725,0,11.824,5.607,11.824,12.767,0,7.114-4.1,12.721-11.824,12.721s-11.825-5.607-11.825-12.721c0-7.16,4.1-12.767,11.825-12.767m0,21.954c4.192,0,7.584-3.3,7.584-9.187,0-5.935-3.392-9.233-7.584-9.233s-7.585,3.3-7.585,9.233C96.414,119.96,99.806,123.258,104,123.258Z" transform="translate(-2.792 -2.992)" fill="#161615"/>
    <path id="Path_2449" data-name="Path 2449" d="M120.81,101.869h3.769v3.58h.094a8.978,8.978,0,0,1,7.867-4.146c2.968,0,5.7,1.178,6.69,4.146a9.011,9.011,0,0,1,7.632-4.146c4.852,0,8.1,2.026,8.1,7.066v17.856h-4V110.255c0-3.015-.8-5.417-4.711-5.417-3.863,0-6.359,2.45-6.359,6.218v15.171h-4V110.255c0-3.157-.989-5.417-4.569-5.417a6.57,6.57,0,0,0-6.5,6.218v15.171h-4V101.869" transform="translate(-4.174 -2.992)" fill="#161615"/>
    <path id="Path_2450" data-name="Path 2450" d="M161.85,101.869h3.769v3.58h.094a8.978,8.978,0,0,1,7.867-4.146c2.967,0,5.7,1.178,6.69,4.146A9.012,9.012,0,0,1,187.9,101.3c4.852,0,8.1,2.026,8.1,7.066v17.856h-4V110.255c0-3.015-.8-5.417-4.711-5.417-3.862,0-6.359,2.45-6.359,6.218v15.171h-4V110.255c0-3.157-.989-5.417-4.569-5.417a6.57,6.57,0,0,0-6.5,6.218v15.171h-4V101.869" transform="translate(-6.155 -2.992)" fill="#161615"/>
    <path id="Path_2451" data-name="Path 2451" d="M223.583,118.5c-1.084,5.372-4.947,8.292-10.411,8.292-7.774,0-11.448-5.371-11.684-12.815,0-7.3,4.806-12.672,11.448-12.672,8.621,0,11.259,8.056,11.024,13.946H205.728c-.141,4.24,2.261,8.008,7.585,8.008,3.3,0,5.606-1.6,6.313-4.759h3.957m-3.863-6.783a7.008,7.008,0,0,0-7.019-6.878c-4.193,0-6.691,3.157-6.973,6.878Z" transform="translate(-8.068 -2.992)" fill="#161615"/>
    <path id="Path_2452" data-name="Path 2452" d="M228.491,101.869h3.769V107h.094c1.931-3.911,4.616-5.842,8.951-5.7v4.24c-6.455,0-8.81,3.676-8.81,9.847v10.835h-4V101.869" transform="translate(-9.371 -2.992)" fill="#161615"/>
    <path id="Path_2453" data-name="Path 2453" d="M260.3,109.69a5.669,5.669,0,0,0-6.029-4.852c-5.8,0-7.585,4.569-7.585,9.515,0,4.476,2.025,8.9,7.113,8.9,3.864,0,6.172-2.26,6.69-5.936h4.1c-.9,5.936-4.617,9.47-10.741,9.47-7.444,0-11.4-5.183-11.4-12.438,0-7.3,3.769-13.049,11.5-13.049,5.511,0,9.94,2.592,10.505,8.386H260.3" transform="translate(-10.045 -2.992)" fill="#161615"/>
    <path id="Path_2454" data-name="Path 2454" d="M269.476,92.146h4v4.9h-4Zm0,9.281h4v24.357h-4Z" transform="translate(-11.35 -2.55)" fill="#161615"/>
    <path id="Path_2455" data-name="Path 2455" d="M300.464,126.131a5.407,5.407,0,0,1-2.874.661c-2.073,0-3.391-1.131-3.391-3.77a10.811,10.811,0,0,1-8.574,3.77c-4.429,0-8.056-1.981-8.056-6.832,0-5.512,4.1-6.691,8.244-7.491,4.428-.848,8.2-.565,8.2-3.58,0-3.485-2.873-4.051-5.417-4.051-3.392,0-5.889,1.035-6.077,4.616h-4c.236-6.03,4.9-8.15,10.317-8.15,4.382,0,9.14.989,9.14,6.691v12.531c0,1.884,0,2.732,1.272,2.732a3.416,3.416,0,0,0,1.225-.236v3.109m-6.5-12.484c-1.554,1.13-4.569,1.178-7.255,1.648-2.638.471-4.9,1.413-4.9,4.382,0,2.637,2.261,3.58,4.711,3.58,5.276,0,7.444-3.3,7.444-5.511Z" transform="translate(-11.74 -2.992)" fill="#161615"/>
    <rect id="Rectangle_3323" data-name="Rectangle 3323" width="4.005" height="33.638" transform="translate(291.686 89.596)" fill="#161615"/>
    <path id="Path_2456" data-name="Path 2456" d="M78.957,153.952c-.518-4.805-3.721-6.878-8.338-6.878-3.769,0-7.538,1.367-7.538,5.747,0,4.146,5.371,4.759,10.788,5.984,5.371,1.225,10.741,3.108,10.741,9.7,0,7.162-7.02,10.036-13.143,10.036-7.538,0-13.9-3.676-13.9-11.873h4.24c0,5.652,4.711,8.1,9.8,8.1,4.052,0,8.527-1.272,8.527-6.125,0-4.616-5.37-5.416-10.74-6.6s-10.789-2.732-10.789-8.9c0-6.832,6.078-9.847,12.2-9.847,6.878,0,12.107,3.251,12.39,10.648h-4.24" transform="translate(-1.122 -5.02)" fill="#161615"/>
    <path id="Path_2457" data-name="Path 2457" d="M110.631,170.5c-1.083,5.372-4.946,8.292-10.41,8.292-7.774,0-11.448-5.371-11.684-12.815,0-7.3,4.805-12.672,11.448-12.672,8.621,0,11.259,8.056,11.023,13.946H92.776c-.141,4.24,2.261,8.008,7.585,8.008,3.3,0,5.606-1.6,6.313-4.759h3.956m-3.862-6.783a7.008,7.008,0,0,0-7.02-6.878c-4.192,0-6.69,3.157-6.972,6.878Z" transform="translate(-2.616 -5.502)" fill="#161615"/>
    <path id="Path_2458" data-name="Path 2458" d="M115.538,153.869h3.769V159h.094c1.931-3.911,4.617-5.842,8.951-5.7v4.24c-6.454,0-8.809,3.676-8.809,9.847v10.835h-4V153.869" transform="translate(-3.92 -5.502)" fill="#161615"/>
    <path id="Path_2459" data-name="Path 2459" d="M143.5,178.255h-4.288L130.165,153.9h4.475l6.831,20.3h.1l6.642-20.3H152.4l-8.9,24.357" transform="translate(-4.626 -5.531)" fill="#161615"/>
    <path id="Path_2460" data-name="Path 2460" d="M156.315,144.146h4v4.9h-4Zm0,9.281h4v24.357h-4Z" transform="translate(-5.888 -5.06)" fill="#161615"/>
    <path id="Path_2461" data-name="Path 2461" d="M182.337,161.69a5.67,5.67,0,0,0-6.03-4.852c-5.8,0-7.585,4.569-7.585,9.515,0,4.476,2.025,8.9,7.114,8.9,3.863,0,6.171-2.26,6.689-5.936h4.1c-.895,5.936-4.617,9.47-10.741,9.47-7.444,0-11.4-5.183-11.4-12.438,0-7.3,3.769-13.049,11.5-13.049,5.512,0,9.94,2.592,10.506,8.386h-4.146" transform="translate(-6.282 -5.502)" fill="#161615"/>
    <path id="Path_2462" data-name="Path 2462" d="M212.158,170.5c-1.083,5.372-4.946,8.292-10.411,8.292-7.773,0-11.447-5.371-11.684-12.815,0-7.3,4.805-12.672,11.448-12.672,8.621,0,11.259,8.056,11.023,13.946H194.3c-.141,4.24,2.261,8.008,7.585,8.008,3.3,0,5.606-1.6,6.313-4.759h3.956m-3.862-6.783a7.009,7.009,0,0,0-7.02-6.878c-4.193,0-6.69,3.157-6.972,6.878Z" transform="translate(-7.517 -5.502)" fill="#161615"/>
    <rect id="Rectangle_3324" data-name="Rectangle 3324" width="3.301" height="183.113" transform="translate(34.329 39.417)" fill="#161615"/>
    <path id="Path_2463" data-name="Path 2463" d="M82.872,206.782c-.048-5.915-3.17-7.808-8.944-7.808-4.165,0-8.613,1.939-8.613,6.766,0,3.6,2.84,4.734,5.679,5.585l3.6,1.089c4.639,1.42,9.086,2.934,9.086,8.613,0,3.313-2.082,10.41-13.062,10.41-7.572,0-13.108-3.644-12.73-11.83H61.1c-.331,6.578,3.6,9.085,9.749,9.085,4.4,0,9.607-2.178,9.607-7.239,0-4.781-4.638-5.632-8.376-6.721l-3.314-.994c-3.927-1.134-6.672-3.5-6.672-7.856,0-6.768,5.963-9.655,11.973-9.655,6.863,0,12.4,2.747,12.021,10.555H82.872" transform="translate(-1.136 -7.574)" fill="#8c8b8b"/>
    <path id="Path_2464" data-name="Path 2464" d="M106.244,231.239H103.5l.852-4.448h-.1a10.679,10.679,0,0,1-8.707,5.157c-4.259,0-7.383-1.893-7.383-6.577a15.148,15.148,0,0,1,.378-2.888L91.9,206.82h2.982l-3.407,15.759a10.628,10.628,0,0,0-.331,2.46c0,3.219,2.461,4.4,5.111,4.4,4.307,0,8.234-3.88,9.559-10.079l2.7-12.541H111.5l-5.253,24.419" transform="translate(-2.598 -8.085)" fill="#8c8b8b"/>
    <path id="Path_2465" data-name="Path 2465" d="M117.286,206.784h2.7l-.946,4.4h.094c2.081-3.219,4.59-5.112,8.9-5.112,6.246,0,9.276,4.022,9.276,9.986,0,7.478-5.158,15.853-13.345,15.853-3.834,0-7.147-1.607-7.809-5.583h-.1l-2.981,13.912h-2.982l7.193-33.457m-.189,15.568c0,4.259,2.461,7.051,6.815,7.051,6.862,0,10.411-7.572,10.411-13.533,0-4.165-2.081-7.289-6.577-7.289C120.884,208.582,117.1,216.3,117.1,222.352Z" transform="translate(-3.657 -8.049)" fill="#8c8b8b"/>
    <path id="Path_2466" data-name="Path 2466" d="M144.335,206.784h2.7l-.947,4.4h.1c2.082-3.219,4.59-5.112,8.9-5.112,6.247,0,9.276,4.022,9.276,9.986,0,7.478-5.158,15.853-13.346,15.853-3.833,0-7.146-1.607-7.808-5.583h-.1l-2.981,13.912h-2.982l7.193-33.457m-.189,15.568c0,4.259,2.461,7.051,6.815,7.051,6.862,0,10.412-7.572,10.412-13.533,0-4.165-2.082-7.289-6.579-7.289C147.932,208.582,144.146,216.3,144.146,222.352Z" transform="translate(-4.962 -8.049)" fill="#8c8b8b"/>
    <path id="Path_2467" data-name="Path 2467" d="M173.219,196.974H176.2l-7.288,33.789h-2.982l7.288-33.789" transform="translate(-6.352 -7.61)" fill="#8c8b8b"/>
    <path id="Path_2468" data-name="Path 2468" d="M178.893,206.345h2.982l-5.254,24.419h-2.982l5.254-24.419m2.035-9.371h2.982l-1.041,4.781h-2.982Z" transform="translate(-6.724 -7.61)" fill="#8c8b8b"/>
    <path id="Path_2469" data-name="Path 2469" d="M185.714,219.8a11.8,11.8,0,0,0-.142,1.893c0,4.4,2.271,7.714,7.1,7.714a8.319,8.319,0,0,0,8-6.057h2.981c-1.608,5.442-5.347,8.565-11.121,8.565-6.437,0-9.938-4.022-9.938-10.362,0-7.714,4.827-15.476,13.2-15.476,5.868,0,9.276,3.834,9.276,9.514a32.291,32.291,0,0,1-.237,4.21H185.714m16.327-2.508c0-.661.047-1.278.047-1.893,0-4.069-2.554-6.814-6.673-6.814-4.921,0-8.282,4.164-9.323,8.707Z" transform="translate(-7.156 -8.049)" fill="#8c8b8b"/>
    <path id="Path_2470" data-name="Path 2470" d="M210.915,206.8h2.7l-1.231,5.63h.1c1.893-3.5,4.5-6.009,8.849-5.964.521,0,1.089,0,1.609.049l-.662,2.981c-.568,0-1.136-.046-1.7-.046-5.349.094-8.188,4.4-9.181,8.99l-2.746,12.778h-2.981l5.254-24.419" transform="translate(-8.269 -8.068)" fill="#8c8b8b"/>
  </g>
</svg>
